<?xml version="1.0" encoding="UTF-8" standalone="no"?>
<!-- Created with Inkscape (http://www.inkscape.org/) -->

<svg
   width="1080"
   height="1080"
   viewBox="0 0 1080 1080"
   version="1.1"
   id="svg1"
   xml:space="preserve"
   inkscape:version="1.3.2 (091e20e, 2023-11-25, custom)"
   sodipodi:docname="gray logo.svg"
   inkscape:export-filename="..\Documents\WebSites\maricrown\favicon.svg"
   inkscape:export-xdpi="96"
   inkscape:export-ydpi="96"
   xmlns:inkscape="http://www.inkscape.org/namespaces/inkscape"
   xmlns:sodipodi="http://sodipodi.sourceforge.net/DTD/sodipodi-0.dtd"
   xmlns="http://www.w3.org/2000/svg"
   xmlns:svg="http://www.w3.org/2000/svg"><sodipodi:namedview
     id="namedview1"
     pagecolor="#505050"
     bordercolor="#eeeeee"
     borderopacity="1"
     inkscape:showpageshadow="0"
     inkscape:pageopacity="0"
     inkscape:pagecheckerboard="0"
     inkscape:deskcolor="#505050"
     inkscape:document-units="px"
     inkscape:zoom="0.70710678"
     inkscape:cx="591.14127"
     inkscape:cy="553.66461"
     inkscape:window-width="1920"
     inkscape:window-height="991"
     inkscape:window-x="-9"
     inkscape:window-y="-9"
     inkscape:window-maximized="1"
     inkscape:current-layer="layer1" /><defs
     id="defs1" /><g
     inkscape:label="Layer 1"
     inkscape:groupmode="layer"
     id="layer1"
     style="display:inline;opacity:1"><g
       id="g1"><path
         style="fill:#b9b9b9;fill-opacity:1;stroke:none;stroke-width:1.63465"
         d="m 104.51812,686.47054 109.62503,61.03107 V 610.15626 L 186.43848,594.16097 V 438.41653 L 376.77436,548.307 531.37206,393.70931 689.11617,551.45342 885.74152,437.93171 V 597.46342 L 233.48001,974.04678 312.76814,1053.3349 963.81599,677.45224 V 285.61791 L 706.51563,434.17034 532.37174,260.02644 353.41361,438.98454 104.57626,295.31822 Z"
         id="path1"
         sodipodi:nodetypes="ccccccccccccccccccc" /><path
         style="fill:#b9b9b9;fill-opacity:1;stroke:none;stroke-width:1.63465"
         d="M 302.88382,921.14788 V 516.5199 l -74.01905,-42.73491 0.001,490.09274 z"
         id="path2"
         sodipodi:nodetypes="ccccc" /><path
         style="fill:#b9b9b9;fill-opacity:1;stroke:none;stroke-width:3.10584;stroke-dasharray:none;stroke-opacity:1"
         d="M 409.03001,857.17423 521.5011,792.23901 318.28825,674.91402 318.2554,806.46935 Z"
         id="path4"
         sodipodi:nodetypes="ccccc" /><path
         style="fill:#b9b9b9;fill-opacity:1;stroke:none;stroke-width:3.10584;stroke-dasharray:none;stroke-opacity:1"
         d="m 652.37761,869.72807 98.17734,53.20006 V 1056.6371 L 539.56776,934.83137 Z"
         id="path6"
         sodipodi:nodetypes="ccccc" /><path
         style="fill:#b9b9b9;fill-opacity:1;stroke:none;stroke-width:3.10584;stroke-dasharray:none;stroke-opacity:1"
         d="M 765.85991,1054.0194 V 805.23517 l 71.9728,-41.55351 V 981.4885 Z"
         id="path7"
         sodipodi:nodetypes="ccccc" /><path
         style="fill:#b9b9b9;fill-opacity:1;stroke:none;stroke-width:3.10584;stroke-dasharray:none;stroke-opacity:1"
         d="m 838.75595,475.88721 -73.63293,42.51198 v 135.66472 l 73.6027,-42.49454 z"
         id="path8" /><path
         style="fill:#b9b9b9;fill-opacity:1;stroke:none;stroke-width:3.10584;stroke-dasharray:none;stroke-opacity:1"
         d="m 765.60542,385.98154 73.59481,-42.48999 V 189.41505 L 674.28723,24.502053 532.055,166.73429 390.0449,24.724194 226.58004,188.18906 v 161.42155 l 73.17148,42.24556 V 232.73324 l 80.08731,-80.08731 121.36218,121.36218 30.64966,-30.64967 32.07998,32.07999 123.82463,-123.82464 77.44148,77.44148 z"
         id="path9" /></g><circle
       style="display:none;fill:none;fill-opacity:1;stroke:#f29af3;stroke-width:2.45426;stroke-dasharray:none;stroke-opacity:1"
       id="path10"
       cx="541.6438"
       cy="540.22961"
       r="462.17068" /><circle
       style="display:none;fill:none;fill-opacity:1;stroke:#f29af3;stroke-width:2.73888;stroke-dasharray:none;stroke-opacity:1"
       id="circle11"
       cx="541.6438"
       cy="540.22961"
       r="515.76849" /></g><g
     inkscape:groupmode="layer"
     id="layer2"
     inkscape:label="Layer 2"
     style="display:none"><path
       style="display:inline;fill:#ffffff;fill-opacity:1;stroke:none;stroke-width:1.9;stroke-dasharray:none;stroke-opacity:1"
       d="m 402.34376,612.35447 v 62.57895 l 29.32714,16.93203 v 76.05251 l -20.65344,11.92427 -17.72361,-17.72361 V 508.58655 l -46.0288,-26.57474 v 302.78833 l 51.80196,51.80195 71.09401,-41.04615 V 652.65956 Z"
       id="path15" /><path
       style="fill:#ffffff;fill-opacity:1;stroke:none;stroke-width:1.9;stroke-dasharray:none;stroke-opacity:1"
       d="m 340,574.75 v 64 L 271.7976,599.37332 V 373 L 423.37807,460.51503 532.82155,351.07155 639.75,458 797.3931,366.98471 V 598.5 c 0,0 -46.38767,26.08797 -46.96165,25.11332 -2.35077,-3.99173 0,-163.86332 0,-163.86332 L 629.36965,529.64506 532.86229,433.1377 438.25,527.75 321.30842,460.23375 V 564.5 Z"
       id="path17"
       sodipodi:nodetypes="cccccccccsccccccc" /><path
       style="display:inline;fill:#ffffff;fill-opacity:1;stroke:none;stroke-width:1.9;stroke-dasharray:none;stroke-opacity:1"
       d="m 346.5,406.375 43.89783,25.34442 V 334.25 l 49.05109,-49.05108 74.61358,74.61358 18.875,-18.875 19.625,19.625 76.0625,-76.0625 46.8125,46.8125 V 428.5 l 45.30641,-26.15767 V 307.5 L 619.87195,206.62805 532.5,294 445.875,207.375 346.75,306.5 Z"
       id="path18" /><path
       style="display:inline;fill:#ffffff;fill-opacity:1;stroke:none;stroke-width:1.9;stroke-dasharray:none;stroke-opacity:1"
       d="m 665.08231,612.35447 v 62.57895 l -29.32714,16.93203 v 76.05251 l 20.65344,11.92427 17.72361,-17.72361 V 510.58655 l 46.0288,-26.57474 v 302.78833 l -51.80196,49.80195 -71.09401,-41.04615 V 652.65956 Z"
       id="path20"
       sodipodi:nodetypes="ccccccccccccc" /><path
       style="fill:#ffffff;fill-opacity:1;stroke:none;stroke-width:1.9;stroke-dasharray:none;stroke-opacity:1"
       d="m 795.08612,599.83734 c -1.40787,0.37723 -66.23172,37.7686 -66.23172,37.7686 v -58.55135 l 66.61943,-37.61745 z"
       id="path22"
       sodipodi:nodetypes="ccccc" /></g></svg>
