<?xml version="1.0" encoding="UTF-8" standalone="no"?>
<!-- Created with Inkscape (http://www.inkscape.org/) -->

<svg
   width="1080"
   height="1080"
   viewBox="0 0 1080 1080"
   version="1.1"
   id="svg1"
   xml:space="preserve"
   inkscape:version="1.3.2 (091e20e, 2023-11-25, custom)"
   sodipodi:docname="Maricrown logo.svg"
   inkscape:export-filename="Maricrown logo.png"
   inkscape:export-xdpi="96"
   inkscape:export-ydpi="96"
   xmlns:inkscape="http://www.inkscape.org/namespaces/inkscape"
   xmlns:sodipodi="http://sodipodi.sourceforge.net/DTD/sodipodi-0.dtd"
   xmlns="http://www.w3.org/2000/svg"
   xmlns:svg="http://www.w3.org/2000/svg"><sodipodi:namedview
     id="namedview1"
     pagecolor="#505050"
     bordercolor="#eeeeee"
     borderopacity="1"
     inkscape:showpageshadow="0"
     inkscape:pageopacity="0"
     inkscape:pagecheckerboard="0"
     inkscape:deskcolor="#505050"
     inkscape:document-units="px"
     inkscape:zoom="0.70710678"
     inkscape:cx="591.14127"
     inkscape:cy="553.66461"
     inkscape:window-width="1920"
     inkscape:window-height="991"
     inkscape:window-x="-9"
     inkscape:window-y="-9"
     inkscape:window-maximized="1"
     inkscape:current-layer="layer1" /><defs
     id="defs1" /><g
     inkscape:label="Layer 1"
     inkscape:groupmode="layer"
     id="layer1"
     style="display:inline;opacity:1"><path
       style="fill:#ffffff;fill-opacity:1;stroke:none"
       d="m 271.32834,611.82483 67.06336,37.33589 V 565.1394 l -16.94839,-9.78516 v -95.27702 l 116.43841,67.22575 94.57549,-94.57549 96.50032,96.50032 120.286,-69.44716 v 97.59388 L 350.22107,787.75025 398.72576,836.25494 797.00577,606.30786 V 366.60232 L 639.60169,457.47961 533.06877,350.94668 423.59073,460.42471 271.36391,372.53651 Z"
       id="path1"
       sodipodi:nodetypes="ccccccccccccccccccc" /><path
       style="fill:#ffffff;fill-opacity:1;stroke:none"
       d="M 392.67901,755.38923 V 507.85714 l -45.28132,-26.14318 10e-4,299.81535 z"
       id="path2"
       sodipodi:nodetypes="ccccc" /><path
       style="fill:#ffffff;fill-opacity:1;stroke:none;stroke-width:1.9;stroke-dasharray:none;stroke-opacity:1"
       d="m 457.61418,716.2532 68.80445,-39.72427 -124.31592,-71.77383 -0.0201,80.47927 z"
       id="path4"
       sodipodi:nodetypes="ccccc" /><path
       style="fill:#ffffff;fill-opacity:1;stroke:none;stroke-width:1.9;stroke-dasharray:none;stroke-opacity:1"
       d="m 606.48263,723.93304 60.06021,32.54526 v 81.79679 L 537.47095,763.76013 Z"
       id="path6"
       sodipodi:nodetypes="ccccc" /><path
       style="fill:#ffffff;fill-opacity:1;stroke:none;stroke-width:1.9;stroke-dasharray:none;stroke-opacity:1"
       d="M 675.90569,836.67369 V 684.47936 l 44.02952,-25.42045 v 133.24383 z"
       id="path7"
       sodipodi:nodetypes="ccccc" /><path
       style="fill:#ffffff;fill-opacity:1;stroke:none;stroke-width:1.9;stroke-dasharray:none;stroke-opacity:1"
       d="m 720.5,483 -45.04511,26.0068 V 592 l 45.02662,-25.99613 z"
       id="path8" /><path
       style="fill:#ffffff;fill-opacity:1;stroke:none;stroke-width:1.9;stroke-dasharray:none;stroke-opacity:1"
       d="m 675.75,428 45.02179,-25.99335 V 307.75 L 619.88589,206.8641 532.875,293.875 446,207 346,307 v 98.75 l 44.76282,25.84382 V 334.25 L 439.75641,285.25641 514,359.5 l 18.75,-18.75 19.625,19.625 75.75,-75.75 L 675.5,332 Z"
       id="path9" /><circle
       style="display:none;fill:none;fill-opacity:1;stroke:#f29af3;stroke-width:2.45426;stroke-dasharray:none;stroke-opacity:1"
       id="path10"
       cx="541.6438"
       cy="540.22961"
       r="462.17068" /><circle
       style="display:none;fill:none;fill-opacity:1;stroke:#f29af3;stroke-width:2.73888;stroke-dasharray:none;stroke-opacity:1"
       id="circle11"
       cx="541.6438"
       cy="540.22961"
       r="515.76849" /></g><g
     inkscape:groupmode="layer"
     id="layer2"
     inkscape:label="Layer 2"
     style="display:none"><path
       style="display:inline;fill:#ffffff;fill-opacity:1;stroke:none;stroke-width:1.9;stroke-dasharray:none;stroke-opacity:1"
       d="m 402.34376,612.35447 v 62.57895 l 29.32714,16.93203 v 76.05251 l -20.65344,11.92427 -17.72361,-17.72361 V 508.58655 l -46.0288,-26.57474 v 302.78833 l 51.80196,51.80195 71.09401,-41.04615 V 652.65956 Z"
       id="path15" /><path
       style="fill:#ffffff;fill-opacity:1;stroke:none;stroke-width:1.9;stroke-dasharray:none;stroke-opacity:1"
       d="m 340,574.75 v 64 L 271.7976,599.37332 V 373 L 423.37807,460.51503 532.82155,351.07155 639.75,458 797.3931,366.98471 V 598.5 c 0,0 -46.38767,26.08797 -46.96165,25.11332 -2.35077,-3.99173 0,-163.86332 0,-163.86332 L 629.36965,529.64506 532.86229,433.1377 438.25,527.75 321.30842,460.23375 V 564.5 Z"
       id="path17"
       sodipodi:nodetypes="cccccccccsccccccc" /><path
       style="display:inline;fill:#ffffff;fill-opacity:1;stroke:none;stroke-width:1.9;stroke-dasharray:none;stroke-opacity:1"
       d="m 346.5,406.375 43.89783,25.34442 V 334.25 l 49.05109,-49.05108 74.61358,74.61358 18.875,-18.875 19.625,19.625 76.0625,-76.0625 46.8125,46.8125 V 428.5 l 45.30641,-26.15767 V 307.5 L 619.87195,206.62805 532.5,294 445.875,207.375 346.75,306.5 Z"
       id="path18" /><path
       style="display:inline;fill:#ffffff;fill-opacity:1;stroke:none;stroke-width:1.9;stroke-dasharray:none;stroke-opacity:1"
       d="m 665.08231,612.35447 v 62.57895 l -29.32714,16.93203 v 76.05251 l 20.65344,11.92427 17.72361,-17.72361 V 510.58655 l 46.0288,-26.57474 v 302.78833 l -51.80196,49.80195 -71.09401,-41.04615 V 652.65956 Z"
       id="path20"
       sodipodi:nodetypes="ccccccccccccc" /><path
       style="fill:#ffffff;fill-opacity:1;stroke:none;stroke-width:1.9;stroke-dasharray:none;stroke-opacity:1"
       d="m 795.08612,599.83734 c -1.40787,0.37723 -66.23172,37.7686 -66.23172,37.7686 v -58.55135 l 66.61943,-37.61745 z"
       id="path22"
       sodipodi:nodetypes="ccccc" /></g></svg>
